<?xml version="1.0" encoding="UTF-8" standalone="no"?>
<!DOCTYPE svg PUBLIC "-//W3C//DTD SVG 1.1//EN"
"http://www.w3.org/Graphics/SVG/1.1/DTD/svg11.dtd">


<!-- Page 1 -->
<svg x="0" y="0" width="1564" height="1564" viewBox="0 0 1564 1564" version="1.1" xmlns="http://www.w3.org/2000/svg" xmlns:xlink="http://www.w3.org/1999/xlink"
style="display: block;margin-left: auto;margin-right: auto;">
<defs>

<style type="text/css"><![CDATA[

.g0_1{
}
.g1_1{
fill: none;
stroke: #FFFFF;
stroke-width: 1.5277778;
stroke-linecap: butt;
stroke-linejoin: miter;
}

]]></style>

</defs>
<path d="M0,0
L0,1564
L1564,1564
L1564,0 Z "
fill="#00000000" stroke="none" />
<path d="M782.2,1503.3c397.6,0,721.1,-323.5,721.1,-721.1C1503.3,384.6,1179.8,61.1,782.2,61.1C384.6,61.1,61.1,384.6,61.1,782.2c0,397.6,323.5,721.1,721.1,721.1m0,61.1C350.2,1564.4,0,1214.2,0,782.2C0,350.2,350.2,0,782.2,0c432,0,782.2,350.2,782.2,782.2c0,432,-350.2,782.2,-782.2,782.2Z" class="g0_1" />
<path d="M698.9,274.1c-44.6,0,-83.4,22.9,-113.3,56.4C555.7,364,532.5,408.4,514.3,458.6C485.2,539.2,466.4,635.3,461,725.9c-87.6,10.1,-159.9,24,-214.8,41.5c-29.3,9.4,-53.4,19.6,-72.1,32.4c-18.7,12.8,-35,31,-35,55.5c0,18,9.8,33.2,21.4,44.2c11.7,11,26,19.2,43.3,27.1c34.7,15.8,81.2,28.8,138.2,39.8c114,22,269.4,35.4,440.8,35.4c171.5,0,326.8,-13.4,440.9,-35.4c57,-11,103.5,-24,138.2,-39.8c17.3,-7.9,31.6,-16.1,43.3,-27.1c11.6,-11,21.4,-26.2,21.4,-44.2c0,-24.5,-16.3,-42.7,-35,-55.5c-18.7,-12.8,-42.8,-23,-72.2,-32.4C1264.6,749.9,1190.1,736,1102.5,725.9c-5.4,-90.6,-22,-186.7,-51.1,-267.3C1033.2,408.3,1010,364,980.1,330.5C950.2,297,911.4,274.1,866.8,274.1c-21.4,0,-38.1,7.8,-52.9,14.4c-14.8,6.6,-28,12.2,-35.9,13.6c-.2,.1,-.6,.3,-.8,.4C764.5,296.4,751.9,290.1,740,285c-13.5,-5.7,-24.9,-10.9,-41.1,-10.9Zm0,56c-1.7,0,8.1,1.3,19.2,6.1c11.2,4.7,25,11.7,39.8,18.8c29.6,14.2,60.8,31,94.9,31c14,.4,26,-9.5,28.3,-23.3c2.4,-13.8,-5.8,-27.1,-19.1,-31.3c1,-.2,4,-1.3,4.8,-1.3c26.1,0,49,12.1,71.7,37.6c22.8,25.5,43.3,63.8,59.9,109.8c18.3,50.5,31.2,109.7,39.4,169.6c-44.5,22.4,-120.8,46.8,-255,46.8c-134.2,0,-210.4,-24.4,-254.9,-46.8C536.1,587.2,549,528,567.2,477.5c16.7,-46,37.2,-84.3,59.9,-109.8c22.8,-25.6,45.6,-37.6,71.8,-37.6ZM521.3,705.7c53.9,23.5,135.8,44.2,261.5,44.2c125.8,0,207.7,-20.7,261.6,-44.2c2.3,27.5,3.7,54.5,3.9,80.5c-1.6,1.4,-3.6,3.2,-8.3,5.7c-11.8,6.3,-31.9,13.8,-57.3,20.1C932,824.6,860,833.9,782.9,833.9C705.7,833.9,633.7,824.6,583,812c-25.4,-6.3,-45.5,-13.8,-57.3,-20.1c-4.7,-2.5,-6.7,-4.3,-8.3,-5.7c.2,-26,1.6,-53,3.9,-80.5ZM461,782.3c-.1,3.1,0,6.4,0,9.6c0,13.7,6.9,24.5,14,31.9c7.1,7.4,15.2,12.5,24.4,17.5c18.6,9.9,41.8,17.9,70,24.9c56.5,14.1,131.9,23.7,213.4,23.7c81.5,0,156.9,-9.6,213.5,-23.7c28.2,-7,51.4,-15,69.9,-24.9c9.3,-5,17.4,-10.1,24.5,-17.5c7.1,-7.4,14,-18.2,14,-31.9c0,-3.2,.1,-6.5,0,-9.6c81.4,9.8,150.3,23.3,197.7,38.5c26.3,8.4,46.1,17.7,57.3,25.3c7.1,4.9,9.7,8.1,10.5,9.2c-.4,.6,-1,1.5,-3.1,3.5c-4.7,4.5,-14.6,10.8,-28.4,17.1c-27.7,12.5,-71.1,24.9,-125.5,35.4c-108.9,20.9,-261.8,34.5,-430.4,34.5c-168.6,0,-321.5,-13.6,-430.3,-34.5C298.1,900.8,254.7,888.4,227,875.9c-13.8,-6.3,-23.7,-12.6,-28.4,-17.1c-2.1,-2,-2.7,-2.9,-3.1,-3.5c.8,-1.1,3.3,-4.3,10.5,-9.2c11.2,-7.6,31,-16.9,57.3,-25.3C310.7,805.6,379.6,792.1,461,782.3Zm-30.2,233.5c-9.2,.8,-17.5,6.1,-22,14.1c-4.5,8.1,-4.9,17.8,-.8,26.1c30.9,62,77.6,117.3,129.1,157.9c51.5,40.6,107.6,67.8,161.8,67.8c7.3,0,14.5,-3.1,19.6,-8.3l64.3,-64.3l64.3,64.3c5.2,5.2,12.3,8.3,19.7,8.3c54.2,0,110.3,-27.2,161.8,-67.8c51.5,-40.6,98.2,-95.9,129,-157.9c4.8,-9.6,3.6,-21.1,-3,-29.6c-6.6,-8.5,-17.5,-12.4,-28,-10.1c-110.8,25.2,-228.4,27.8,-343.8,27.5c-115.4,.3,-232.9,-2.3,-343.7,-27.5c-2.7,-.6,-5.5,-.8,-8.3,-.5Zm60.8,66.5c97.6,15.3,196.1,17.8,291.2,17.5c95.2,.3,193.7,-2.2,291.3,-17.5c-23.6,33,-50.2,63.9,-80,87.5c-41.4,32.6,-84.3,50.8,-117.7,53.7l-73.9,-73.9c-10.9,-10.7,-28.5,-10.7,-39.4,0l-73.9,73.9c-33.4,-2.9,-76.3,-21.1,-117.6,-53.7c-29.9,-23.6,-56.4,-54.5,-80,-87.5Z" class="g0_1" />
<path d="M698.9,274.1c-44.6,0,-83.4,22.9,-113.3,56.4C555.7,364,532.5,408.4,514.3,458.6C485.2,539.2,466.4,635.3,461,725.9c-87.6,10.1,-159.9,24,-214.8,41.5c-29.3,9.4,-53.4,19.6,-72.1,32.4c-18.7,12.8,-35,31,-35,55.5c0,18,9.8,33.2,21.4,44.2c11.7,11,26,19.2,43.3,27.1c34.7,15.8,81.2,28.8,138.2,39.8c114,22,269.4,35.4,440.8,35.4c171.5,0,326.8,-13.4,440.9,-35.4c57,-11,103.5,-24,138.2,-39.8c17.3,-7.9,31.6,-16.1,43.3,-27.1c11.6,-11,21.4,-26.2,21.4,-44.2c0,-24.5,-16.3,-42.7,-35,-55.5c-18.7,-12.8,-42.8,-23,-72.2,-32.4C1264.6,749.9,1190.1,736,1102.5,725.9c-5.4,-90.6,-22,-186.7,-51.1,-267.3C1033.2,408.3,1010,364,980.1,330.5C950.2,297,911.4,274.1,866.8,274.1c-21.4,0,-38.1,7.8,-52.9,14.4c-14.8,6.6,-28,12.2,-35.9,13.6c-.2,.1,-.6,.3,-.8,.4C764.5,296.4,751.9,290.1,740,285c-13.5,-5.7,-24.9,-10.9,-41.1,-10.9Zm0,56c-1.7,0,8.1,1.3,19.2,6.1c11.2,4.7,25,11.7,39.8,18.8c29.6,14.2,60.8,31,94.9,31c14,.4,26,-9.5,28.3,-23.3c2.4,-13.8,-5.8,-27.1,-19.1,-31.3c1,-.2,4,-1.3,4.8,-1.3c26.1,0,49,12.1,71.7,37.6c22.8,25.5,43.3,63.8,59.9,109.8c18.3,50.5,31.2,109.7,39.4,169.6c-44.5,22.4,-120.8,46.8,-255,46.8c-134.2,0,-210.4,-24.4,-254.9,-46.8C536.1,587.2,549,528,567.2,477.5c16.7,-46,37.2,-84.3,59.9,-109.8c22.8,-25.6,45.6,-37.6,71.8,-37.6ZM521.3,705.7c53.9,23.5,135.8,44.2,261.5,44.2c125.8,0,207.7,-20.7,261.6,-44.2c2.3,27.5,3.7,54.5,3.9,80.5c-1.6,1.4,-3.6,3.2,-8.3,5.7c-11.8,6.3,-31.9,13.8,-57.3,20.1C932,824.6,860,833.9,782.9,833.9C705.7,833.9,633.7,824.6,583,812c-25.4,-6.3,-45.5,-13.8,-57.3,-20.1c-4.7,-2.5,-6.7,-4.3,-8.3,-5.7c.2,-26,1.6,-53,3.9,-80.5ZM461,782.3c-.1,3.1,0,6.4,0,9.6c0,13.7,6.9,24.5,14,31.9c7.1,7.4,15.2,12.5,24.4,17.5c18.6,9.9,41.8,17.9,70,24.9c56.5,14.1,131.9,23.7,213.4,23.7c81.5,0,156.9,-9.6,213.5,-23.7c28.2,-7,51.4,-15,69.9,-24.9c9.3,-5,17.4,-10.1,24.5,-17.5c7.1,-7.4,14,-18.2,14,-31.9c0,-3.2,.1,-6.5,0,-9.6c81.4,9.8,150.3,23.3,197.7,38.5c26.3,8.4,46.1,17.7,57.3,25.3c7.1,4.9,9.7,8.1,10.5,9.2c-.4,.6,-1,1.5,-3.1,3.5c-4.7,4.5,-14.6,10.8,-28.4,17.1c-27.7,12.5,-71.1,24.9,-125.5,35.4c-108.9,20.9,-261.8,34.5,-430.4,34.5c-168.6,0,-321.5,-13.6,-430.3,-34.5C298.1,900.8,254.7,888.4,227,875.9c-13.8,-6.3,-23.7,-12.6,-28.4,-17.1c-2.1,-2,-2.7,-2.9,-3.1,-3.5c.8,-1.1,3.3,-4.3,10.5,-9.2c11.2,-7.6,31,-16.9,57.3,-25.3C310.7,805.6,379.6,792.1,461,782.3Zm-30.2,233.5c-9.2,.8,-17.5,6.1,-22,14.1c-4.5,8.1,-4.9,17.8,-.8,26.1c30.9,62,77.6,117.3,129.1,157.9c51.5,40.6,107.6,67.8,161.8,67.8c7.3,0,14.5,-3.1,19.6,-8.3l64.3,-64.3l64.3,64.3c5.2,5.2,12.3,8.3,19.7,8.3c54.2,0,110.3,-27.2,161.8,-67.8c51.5,-40.6,98.2,-95.9,129,-157.9c4.8,-9.6,3.6,-21.1,-3,-29.6c-6.6,-8.5,-17.5,-12.4,-28,-10.1c-110.8,25.2,-228.4,27.8,-343.8,27.5c-115.4,.3,-232.9,-2.3,-343.7,-27.5c-2.7,-.6,-5.5,-.8,-8.3,-.5Zm60.8,66.5c97.6,15.3,196.1,17.8,291.2,17.5c95.2,.3,193.7,-2.2,291.3,-17.5c-23.6,33,-50.2,63.9,-80,87.5c-41.4,32.6,-84.3,50.8,-117.7,53.7l-73.9,-73.9c-10.9,-10.7,-28.5,-10.7,-39.4,0l-73.9,73.9c-33.4,-2.9,-76.3,-21.1,-117.6,-53.7c-29.9,-23.6,-56.4,-54.5,-80,-87.5Z" class="g1_1" />
<path d="M508.1,671.6c50.9,3,74.2,24.7,116.4,33.9c50.4,11,114.5,10.4,166.1,13.6C1076.9,737,1070.3,607,1074.9,671.6c-10.4,-46.9,35.4,95.4,0,123.3c-15.5,12.3,-114.8,51.6,-246.3,63C668.1,857,476.1,849.4,482.9,773.8C495,639.3,508.1,671.6,508.1,671.6Z" class="g0_1" />

</svg>
