<?xml version="1.0" encoding="UTF-8" standalone="no"?>
<!DOCTYPE svg PUBLIC "-//W3C//DTD SVG 1.1//EN"
"http://www.w3.org/Graphics/SVG/1.1/DTD/svg11.dtd">


<!-- Page 1 -->
<svg x="0" y="0" width="140" height="140" viewBox="0 0 140 140" version="1.1" xmlns="http://www.w3.org/2000/svg" xmlns:xlink="http://www.w3.org/1999/xlink"
style="display: block;margin-left: auto;margin-right: auto;">
<defs>

<style type="text/css"><![CDATA[

.g0_1{
}

]]></style>

</defs>
<path d="M0,0
L0,140
L140,140
L140,0 Z " 
fill="#FFFFFF" stroke="none" />
<path d="M70.3,0C31.5,0,0,31.5,0,70.3c0,38.8,31.5,70.3,70.3,70.3c38.8,0,70.3,-31.5,70.3,-70.3C140.6,31.5,109.1,0,70.3,0Zm0,6.1c35.5,0,64.1,28.7,64.1,64.2c0,35.5,-28.6,64.1,-64.1,64.1C34.8,134.4,6.1,105.8,6.1,70.3C6.1,34.8,34.8,6.1,70.3,6.1Zm-36.7,29c-6.7,0,-12.2,5.5,-12.2,12.3V93.2c0,6.7,5.5,12.2,12.2,12.2h73.3c6.8,0,12.3,-5.5,12.3,-12.2V47.4c0,-6.8,-5.5,-12.3,-12.3,-12.3H33.6Zm0,6.2h73.3c3.5,0,6.2,2.6,6.2,6.1V93.2c0,3.4,-2.7,6.1,-6.2,6.1H33.6c-3.4,0,-6.1,-2.7,-6.1,-6.1V47.4c0,-3.5,2.7,-6.1,6.1,-6.1Zm7.3,9.1c-1.2,.1,-2.2,.9,-2.6,2c-.4,1.1,-.1,2.4,.8,3.2L54.5,70.9L39.2,84.8c-.6,.5,-1,1.3,-1,2.1c-.1,.8,.2,1.6,.8,2.2c.5,.6,1.3,1,2.1,1c.8,.1,1.6,-.2,2.2,-.8L58.8,75.2l4.6,4.6c3.8,3.7,9.9,3.7,13.7,0l4.6,-4.6L97.3,89.3c.6,.6,1.3,.9,2.2,.8c.8,0,1.5,-.4,2.1,-1c.5,-.6,.8,-1.4,.8,-2.2c-.1,-.8,-.4,-1.6,-1,-2.1L86,70.9L101.5,55.6c.6,-.5,.9,-1.3,.9,-2.2c0,-.8,-.3,-1.6,-.9,-2.1c-.6,-.6,-1.3,-1,-2.2,-1c-.8,.1,-1.6,.4,-2.1,1L72.7,75.4c-1.1,1.1,-3.8,1.1,-5,0L43.4,51.3c-.6,-.7,-1.6,-1,-2.5,-.9Z" class="g0_1" />

</svg>
