<?xml version="1.0" encoding="UTF-8" standalone="no"?>
<!DOCTYPE svg PUBLIC "-//W3C//DTD SVG 1.1//EN"
"http://www.w3.org/Graphics/SVG/1.1/DTD/svg11.dtd">


<!-- Page 1 -->
<svg x="0" y="0" width="62" height="45" viewBox="0 0 62 45" version="1.1" xmlns="http://www.w3.org/2000/svg" xmlns:xlink="http://www.w3.org/1999/xlink"
style="display: block;margin-left: auto;margin-right: auto;">
<defs>

<style type="text/css"><![CDATA[

.g0_1{
}
.g1_1{
fill: none;
stroke: #F6F6F6;
stroke-width: 0.30555555;
stroke-linecap: butt;
stroke-linejoin: miter;
}


]]></style>

</defs>
<path d="M0,0
L0,45
L62,45
L62,0 Z "
fill="#FFFFFF" stroke="none" />
<path d="M21.7,24.6h18l2.7,-1.3c-.2,-.2,-.4,-.4,-.6,-.5l-6,-3c-.3,-.1,-.6,-.2,-.9,-.2H26.4c-.3,0,-.6,.1,-.8,.2l-6.1,3c-.2,.1,-.3,.3,-.5,.5l2.7,1.3Z" class="g0_1" />
<path d="M21.7,24.6h18l2.7,-1.3c-.2,-.2,-.4,-.4,-.6,-.5l-6,-3c-.3,-.1,-.6,-.2,-.9,-.2H26.4c-.3,0,-.6,.1,-.8,.2l-6.1,3c-.2,.1,-.3,.3,-.5,.5l2.7,1.3Z" class="g1_1" />
<path d="M60.2,22.8l-.4,-.2V11.2c0,-1.4,-.7,-2.7,-2.1,-3.4L43.2,.5C42.6,.2,42.1,.2,41.5,.2H19.9c-.6,0,-1.1,0,-1.7,.3L3.7,7.8c-1.4,.7,-2.1,2,-2.1,3.4V22.6l-.4,.2c-.7,.3,-1,.9,-1,1.7V34.8c0,.8,.3,1.4,1,1.7l16.4,8.2c.3,.1,.6,.2,.9,.2H42.9c.3,0,.6,-.1,.9,-.2L60.2,36.5c.7,-.3,1.1,-.9,1.1,-1.7V24.5c0,-.8,-.4,-1.4,-1.1,-1.7ZM56,11.1v7.7L43.9,12.7V5L56,11.1ZM5.4,27.6V24.4l12.1,6.1v7.7L5.4,32V27.6ZM19.9,15.8H41.6l11.5,5.7L41.6,27.3H19.9L8.5,21.5L19.9,15.8ZM40.1,39.2H21.3V31.1H40.1v8.1ZM56,32L43.9,38.2V30.5L56,24.4V32ZM40.1,3.9V12H21.3V3.9H40.1ZM5.4,16.5V11.2L17.5,5.1v7.7L5.4,18.9V16.5Z" class="g0_1" />
<path d="M60.2,22.8l-.4,-.2V11.2c0,-1.4,-.7,-2.7,-2.1,-3.4L43.2,.5C42.6,.2,42.1,.2,41.5,.2H19.9c-.6,0,-1.1,0,-1.7,.3L3.7,7.8c-1.4,.7,-2.1,2,-2.1,3.4V22.6l-.4,.2c-.7,.3,-1,.9,-1,1.7V34.8c0,.8,.3,1.4,1,1.7l16.4,8.2c.3,.1,.6,.2,.9,.2H42.9c.3,0,.6,-.1,.9,-.2L60.2,36.5c.7,-.3,1.1,-.9,1.1,-1.7V24.5c0,-.8,-.4,-1.4,-1.1,-1.7ZM56,11.1v7.7L43.9,12.7V5L56,11.1ZM5.4,27.6V24.4l12.1,6.1v7.7L5.4,32V27.6ZM19.9,15.8H41.6l11.5,5.7L41.6,27.3H19.9L8.5,21.5L19.9,15.8ZM40.1,39.2H21.3V31.1H40.1v8.1ZM56,32L43.9,38.2V30.5L56,24.4V32ZM40.1,3.9V12H21.3V3.9H40.1ZM5.4,16.5V11.2L17.5,5.1v7.7L5.4,18.9V16.5Z" class="g1_1" />

</svg>
